<svg width="250px" height="80px" viewBox="0 0 250 80" version="1.1" xmlns="http://www.w3.org/2000/svg" xmlns:xlink="http://www.w3.org/1999/xlink">
    <g id="Symbols-" stroke="none" stroke-width="1" fill="none" fill-rule="evenodd">
        <g id="Logo-01" fill="#FFFFFF">
            <path d="M19.984,15.2 L26.008,32 L22.672,32 L21.544,28.472 L15.016,28.472 L13.888,32 L10.552,32 L16.576,15.2 L19.984,15.2 Z M18.28,18.224 L15.856,25.808 L20.68,25.808 L18.28,18.224 Z M28.408,32 L28.408,15.2 L40.168,15.2 L40.168,17.984 L31.768,17.984 L31.768,22.088 L39.448,22.088 L39.448,24.896 L31.768,24.896 L31.768,29.216 L40.192,29.216 L40.192,32 L28.408,32 Z M53.2,32 L50.128,26.624 L46.6,26.624 L46.6,32 L43.24,32 L43.24,15.2 L50.824,15.2 C52.7440096,15.2 54.2359947,15.7279947 55.3,16.784 C56.3640053,17.8400053 56.896,19.2159915 56.896,20.912 C56.896,22.0960059 56.6040029,23.1439954 56.02,24.056 C55.4359971,24.9680046 54.6240052,25.6479978 53.584,26.096 L57.088,32 L53.2,32 Z M46.6,23.912 L50.416,23.912 C51.424005,23.912 52.1959973,23.6360028 52.732,23.084 C53.2680027,22.5319972 53.536,21.8000046 53.536,20.888 C53.536,19.9759954 53.2680027,19.2560026 52.732,18.728 C52.1959973,18.1999974 51.424005,17.936 50.416,17.936 L46.6,17.936 L46.6,23.912 Z M74.464,22.376 L74.464,24.824 C74.464,27.0480111 73.8160065,28.855993 72.52,30.248 C71.2239935,31.640007 69.376012,32.336 66.976,32.336 C64.5919881,32.336 62.7480065,31.640007 61.444,30.248 C60.1399935,28.855993 59.488,27.0480111 59.488,24.824 L59.488,22.376 C59.488,20.1519889 60.1399935,18.344007 61.444,16.952 C62.7480065,15.559993 64.5919881,14.864 66.976,14.864 C69.376012,14.864 71.2239935,15.559993 72.52,16.952 C73.8160065,18.344007 74.464,20.1519889 74.464,22.376 Z M63.88,28.328 C64.5840035,29.1440041 65.6159932,29.552 66.976,29.552 C68.3360068,29.552 69.3639965,29.1400041 70.06,28.316 C70.7560035,27.4919959 71.104,26.384007 71.104,24.992 L71.104,22.208 C71.104,20.815993 70.7560035,19.7080041 70.06,18.884 C69.3639965,18.0599959 68.3360068,17.648 66.976,17.648 C65.6159932,17.648 64.5880035,18.0599959 63.892,18.884 C63.1959965,19.7080041 62.848,20.815993 62.848,22.208 L62.848,24.992 C62.848,26.384007 63.1919966,27.4959958 63.88,28.328 Z M84.496,32.336 C82.0639878,32.336 80.2320062,31.6440069 79,30.26 C77.7679938,28.8759931 77.152,27.0560113 77.152,24.8 L77.152,22.4 C77.152,20.1439887 77.7679938,18.3240069 79,16.94 C80.2320062,15.5559931 82.0639878,14.864 84.496,14.864 C86.5600103,14.864 88.2279936,15.4719939 89.5,16.688 C90.7720064,17.9040061 91.4479996,19.3999911 91.528,21.176 L88.408,21.176 C88.2959994,20.1519949 87.9120033,19.3040034 87.256,18.632 C86.5999967,17.9599966 85.6800059,17.624 84.496,17.624 C83.1519933,17.624 82.1480033,18.0399958 81.484,18.872 C80.8199967,19.7040042 80.488,20.823993 80.488,22.232 L80.488,24.968 C80.488,26.376007 80.8199967,27.4959958 81.484,28.328 C82.1480033,29.1600042 83.1519933,29.576 84.496,29.576 C85.6800059,29.576 86.5999967,29.2400034 87.256,28.568 C87.9120033,27.8959966 88.2959994,27.0480051 88.408,26.024 L91.528,26.024 C91.4479996,27.8000089 90.7720064,29.2959939 89.5,30.512 C88.2279936,31.7280061 86.5600103,32.336 84.496,32.336 Z M94.6,32 L94.6,15.2 L106.36,15.2 L106.36,17.984 L97.96,17.984 L97.96,22.088 L105.64,22.088 L105.64,24.896 L97.96,24.896 L97.96,29.216 L106.384,29.216 L106.384,32 L94.6,32 Z M109.432,32 L109.432,15.2 L112.624,15.2 L119.944,26.384 L119.944,15.2 L123.232,15.2 L123.232,32 L120.04,32 L112.72,20.816 L112.72,32 L109.432,32 Z M126.928,32 L126.928,15.2 L138.688,15.2 L138.688,17.984 L130.288,17.984 L130.288,22.088 L137.968,22.088 L137.968,24.896 L130.288,24.896 L130.288,29.216 L138.712,29.216 L138.712,32 L126.928,32 Z" id="AEROCENE"></path>
            <path d="M11.848,62 L11.848,45.2 L23.344,45.2 L23.344,47.984 L15.208,47.984 L15.208,52.424 L22.624,52.424 L22.624,55.208 L15.208,55.208 L15.208,62 L11.848,62 Z M26.032,62 L26.032,45.2 L29.392,45.2 L29.392,59.216 L37.12,59.216 L37.12,62 L26.032,62 Z M54.424,52.376 L54.424,54.824 C54.424,57.0480111 53.7760065,58.855993 52.48,60.248 C51.1839935,61.640007 49.336012,62.336 46.936,62.336 C44.5519881,62.336 42.7080065,61.640007 41.404,60.248 C40.0999935,58.855993 39.448,57.0480111 39.448,54.824 L39.448,52.376 C39.448,50.1519889 40.0999935,48.344007 41.404,46.952 C42.7080065,45.559993 44.5519881,44.864 46.936,44.864 C49.336012,44.864 51.1839935,45.559993 52.48,46.952 C53.7760065,48.344007 54.424,50.1519889 54.424,52.376 Z M43.84,58.328 C44.5440035,59.1440041 45.5759932,59.552 46.936,59.552 C48.2960068,59.552 49.3239965,59.1400041 50.02,58.316 C50.7160035,57.4919959 51.064,56.384007 51.064,54.992 L51.064,52.208 C51.064,50.815993 50.7160035,49.7080041 50.02,48.884 C49.3239965,48.0599959 48.2960068,47.648 46.936,47.648 C45.5759932,47.648 44.5480035,48.0599959 43.852,48.884 C43.1559965,49.7080041 42.808,50.815993 42.808,52.208 L42.808,54.992 C42.808,56.384007 43.1519966,57.4959958 43.84,58.328 Z M65.752,45.2 L71.776,62 L68.44,62 L67.312,58.472 L60.784,58.472 L59.656,62 L56.32,62 L62.344,45.2 L65.752,45.2 Z M64.048,48.224 L61.624,55.808 L66.448,55.808 L64.048,48.224 Z M77.704,62 L77.704,47.984 L72.952,47.984 L72.952,45.2 L85.816,45.2 L85.816,47.984 L81.064,47.984 L81.064,62 L77.704,62 Z M93.568,62 L93.568,45.2 L100.552,45.2 C102.47201,45.2 103.991994,45.7159948 105.112,46.748 C106.232006,47.7800052 106.792,49.1439915 106.792,50.84 C106.792,52.5360085 106.220006,53.9159947 105.076,54.98 C103.931994,56.0440053 102.424009,56.576 100.552,56.576 L96.928,56.576 L96.928,62 L93.568,62 Z M96.928,53.816 L100.336,53.816 C101.360005,53.816 102.131997,53.5400028 102.652,52.988 C103.172003,52.4359972 103.432,51.7200044 103.432,50.84 C103.432,49.9759957 103.172003,49.2800026 102.652,48.752 C102.131997,48.2239974 101.360005,47.96 100.336,47.96 L96.928,47.96 L96.928,53.816 Z M119.176,62 L116.104,56.624 L112.576,56.624 L112.576,62 L109.216,62 L109.216,45.2 L116.8,45.2 C118.72001,45.2 120.211995,45.7279947 121.276,46.784 C122.340005,47.8400053 122.872,49.2159915 122.872,50.912 C122.872,52.0960059 122.580003,53.1439954 121.996,54.056 C121.411997,54.9680046 120.600005,55.6479978 119.56,56.096 L123.064,62 L119.176,62 Z M112.576,53.912 L116.392,53.912 C117.400005,53.912 118.171997,53.6360028 118.708,53.084 C119.244003,52.5319972 119.512,51.8000046 119.512,50.888 C119.512,49.9759954 119.244003,49.2560026 118.708,48.728 C118.171997,48.1999974 117.400005,47.936 116.392,47.936 L112.576,47.936 L112.576,53.912 Z M125.968,62 L125.968,45.2 L137.728,45.2 L137.728,47.984 L129.328,47.984 L129.328,52.088 L137.008,52.088 L137.008,54.896 L129.328,54.896 L129.328,59.216 L137.752,59.216 L137.752,62 L125.968,62 Z M140.8,45.2 L147.616,45.2 C149.808011,45.2 151.503994,45.8079939 152.704,47.024 C153.904006,48.2400061 154.504,49.8319902 154.504,51.8 L154.504,55.4 C154.504,57.3680098 153.904006,58.9599939 152.704,60.176 C151.503994,61.3920061 149.808011,62 147.616,62 L140.8,62 L140.8,45.2 Z M151.168,55.424 L151.168,51.776 C151.168,50.5439938 150.816004,49.5960033 150.112,48.932 C149.407996,48.2679967 148.384007,47.936 147.04,47.936 L144.136,47.936 L144.136,59.264 L147.04,59.264 C148.384007,59.264 149.407996,58.9320033 150.112,58.268 C150.816004,57.6039967 151.168,56.6560062 151.168,55.424 Z M157.792,62 L157.792,45.2 L161.152,45.2 L161.152,62 L157.792,62 Z M171.808,62.336 C169.375988,62.336 167.544006,61.6440069 166.312,60.26 C165.079994,58.8759931 164.464,57.0560113 164.464,54.8 L164.464,52.4 C164.464,50.1439887 165.079994,48.3240069 166.312,46.94 C167.544006,45.5559931 169.375988,44.864 171.808,44.864 C173.87201,44.864 175.539994,45.4719939 176.812,46.688 C178.084006,47.9040061 178.76,49.3999911 178.84,51.176 L175.72,51.176 C175.607999,50.1519949 175.224003,49.3040034 174.568,48.632 C173.911997,47.9599966 172.992006,47.624 171.808,47.624 C170.463993,47.624 169.460003,48.0399958 168.796,48.872 C168.131997,49.7040042 167.8,50.823993 167.8,52.232 L167.8,54.968 C167.8,56.376007 168.131997,57.4959958 168.796,58.328 C169.460003,59.1600042 170.463993,59.576 171.808,59.576 C172.992006,59.576 173.911997,59.2400034 174.568,58.568 C175.224003,57.8959966 175.607999,57.0480051 175.72,56.024 L178.84,56.024 C178.76,57.8000089 178.084006,59.2959939 176.812,60.512 C175.539994,61.7280061 173.87201,62.336 171.808,62.336 Z M185.44,62 L185.44,47.984 L180.688,47.984 L180.688,45.2 L193.552,45.2 L193.552,47.984 L188.8,47.984 L188.8,62 L185.44,62 Z M210.496,52.376 L210.496,54.824 C210.496,57.0480111 209.848006,58.855993 208.552,60.248 C207.255994,61.640007 205.408012,62.336 203.008,62.336 C200.623988,62.336 198.780007,61.640007 197.476,60.248 C196.171993,58.855993 195.52,57.0480111 195.52,54.824 L195.52,52.376 C195.52,50.1519889 196.171993,48.344007 197.476,46.952 C198.780007,45.559993 200.623988,44.864 203.008,44.864 C205.408012,44.864 207.255994,45.559993 208.552,46.952 C209.848006,48.344007 210.496,50.1519889 210.496,52.376 Z M199.912,58.328 C200.616004,59.1440041 201.647993,59.552 203.008,59.552 C204.368007,59.552 205.395997,59.1400041 206.092,58.316 C206.788003,57.4919959 207.136,56.384007 207.136,54.992 L207.136,52.208 C207.136,50.815993 206.788003,49.7080041 206.092,48.884 C205.395997,48.0599959 204.368007,47.648 203.008,47.648 C201.647993,47.648 200.620003,48.0599959 199.924,48.884 C199.227997,49.7080041 198.88,50.815993 198.88,52.208 L198.88,54.992 C198.88,56.384007 199.223997,57.4959958 199.912,58.328 Z M223.648,62 L220.576,56.624 L217.048,56.624 L217.048,62 L213.688,62 L213.688,45.2 L221.272,45.2 C223.19201,45.2 224.683995,45.7279947 225.748,46.784 C226.812005,47.8400053 227.344,49.2159915 227.344,50.912 C227.344,52.0960059 227.052003,53.1439954 226.468,54.056 C225.883997,54.9680046 225.072005,55.6479978 224.032,56.096 L227.536,62 L223.648,62 Z M217.048,53.912 L220.864,53.912 C221.872005,53.912 222.643997,53.6360028 223.18,53.084 C223.716003,52.5319972 223.984,51.8000046 223.984,50.888 C223.984,49.9759954 223.716003,49.2560026 223.18,48.728 C222.643997,48.1999974 221.872005,47.936 220.864,47.936 L217.048,47.936 L217.048,53.912 Z" id="FLOAT-PREDICTOR" fill-opacity="0.6"></path>
        </g>
    </g>
</svg>