<svg id="Layer_1" data-name="Layer 1" xmlns="http://www.w3.org/2000/svg" viewBox="0 0 156 48"><defs><style>.cls-1{fill:#fff;}.cls-2{fill:#a7a9ac;}</style></defs><title>Artboard 2</title><path class="cls-1" d="M.11,47.38V31.13H10.62v1.51H1.92v6h8v1.51h-8v7.24Z"/><path class="cls-1" d="M13.57,47.38V30.44h1.76V47.38Z"/><path class="cls-1" d="M27.82,46.17a5.1,5.1,0,0,1-3.87,1.48,5.14,5.14,0,0,1-3.89-1.48,5.2,5.2,0,0,1-1.43-3.76V40.46a5.21,5.21,0,0,1,1.43-3.76,5.14,5.14,0,0,1,3.89-1.48,5.1,5.1,0,0,1,3.88,1.48,5.23,5.23,0,0,1,1.42,3.76v1.95A5.23,5.23,0,0,1,27.82,46.17Zm-.28-5.68a4.05,4.05,0,0,0-.94-2.8,3.37,3.37,0,0,0-2.66-1.06,3.37,3.37,0,0,0-2.66,1.06,4.05,4.05,0,0,0-.94,2.8v1.9a4,4,0,0,0,.94,2.8,3.37,3.37,0,0,0,2.66,1.06,3.37,3.37,0,0,0,2.66-1.06,4,4,0,0,0,.94-2.8Z"/><path class="cls-1" d="M42.15,47.38H40.46V45.89a3.45,3.45,0,0,1-1.55,1.23,5.88,5.88,0,0,1-2.53.53,4.88,4.88,0,0,1-3.28-1,3.38,3.38,0,0,1-1.22-2.69,3.25,3.25,0,0,1,1.29-2.71,5.44,5.44,0,0,1,3.42-1,5.06,5.06,0,0,1,3.81,1.49v-2.2a2.84,2.84,0,0,0-.79-2.06,2.9,2.9,0,0,0-2.18-.81,3,3,0,0,0-3,1.79H32.83a4.34,4.34,0,0,1,1.67-2.33,5,5,0,0,1,2.95-.85,4.74,4.74,0,0,1,3.43,1.23,4.05,4.05,0,0,1,1.28,3Zm-5.41-.86a4.39,4.39,0,0,0,2.54-.75,2.21,2.21,0,0,0,1.1-1.87,2.13,2.13,0,0,0-1.08-1.8,4.3,4.3,0,0,0-2.47-.73,3.85,3.85,0,0,0-2.4.68,2.45,2.45,0,0,0,0,3.78A3.69,3.69,0,0,0,36.75,46.52Z"/><path class="cls-1" d="M51.3,47.38H49.81q-3.23,0-3.23-3.16V36.93h-2V35.5h2V32.08h1.76V35.5h3v1.44h-3v7.29a1.83,1.83,0,0,0,.39,1.32,1.9,1.9,0,0,0,1.37.39H51.3Z"/><path class="cls-1" d="M59.6,47.38V31.13H66a5.55,5.55,0,0,1,4,1.45,4.91,4.91,0,0,1,1.51,3.7A5,5,0,0,1,70,40a5.5,5.5,0,0,1-4,1.47H61.41v5.89ZM61.41,40H65.8a3.76,3.76,0,0,0,2.89-1.06,3.71,3.71,0,0,0,1-2.63,3.63,3.63,0,0,0-1-2.61,3.81,3.81,0,0,0-2.89-1H61.41Z"/><path class="cls-1" d="M74.2,47.38V35.5h1.65v2.74q.67-2.81,3.88-2.81H80v1.65h-.35a3.39,3.39,0,0,0-2.7,1.14,5,5,0,0,0-1,3.34v5.82Z"/><path class="cls-1" d="M86.87,47.65a5.22,5.22,0,0,1-3.79-1.4,5,5,0,0,1-1.45-3.77v-1.9A5.49,5.49,0,0,1,83,36.67a5,5,0,0,1,3.82-1.45,4.78,4.78,0,0,1,3.74,1.44,5.36,5.36,0,0,1,1.3,3.74v1.76H83.32v.42a4,4,0,0,0,.89,2.69,3.3,3.3,0,0,0,2.66,1A3.46,3.46,0,0,0,89,45.68,3.1,3.1,0,0,0,90.14,44h1.58a4.17,4.17,0,0,1-1.65,2.62A5.14,5.14,0,0,1,86.87,47.65Zm-3.55-7.22v.37h6.87v-.56a4,4,0,0,0-.86-2.68,3.14,3.14,0,0,0-2.53-1,3.17,3.17,0,0,0-2.65,1.06A4.42,4.42,0,0,0,83.32,40.44Z"/><path class="cls-1" d="M103.36,30.44h1.76V47.38h-1.67V45.52A3.53,3.53,0,0,1,101.95,47a4.94,4.94,0,0,1-2.51.63,4.6,4.6,0,0,1-3.63-1.51,5.53,5.53,0,0,1-1.33-3.81V40.53a5.48,5.48,0,0,1,1.35-3.83,4.59,4.59,0,0,1,3.57-1.48,4.94,4.94,0,0,1,2.38.56,4,4,0,0,1,1.59,1.48ZM96.24,40.6v1.67a4.45,4.45,0,0,0,.87,2.84,3.15,3.15,0,0,0,2.63,1.1,3.28,3.28,0,0,0,2.66-1.15,4.42,4.42,0,0,0,1-2.94V40.6a3.92,3.92,0,0,0-1.06-2.87,3.48,3.48,0,0,0-2.59-1.08,3.13,3.13,0,0,0-2.55,1.13A4.29,4.29,0,0,0,96.24,40.6Z"/><path class="cls-1" d="M109.07,33.13a1.12,1.12,0,0,1,0-1.53,1.25,1.25,0,0,1,1.62,0,1.12,1.12,0,0,1,0,1.53,1.25,1.25,0,0,1-1.62,0ZM109,47.38V35.5h1.76V47.38Z"/><path class="cls-1" d="M119.33,47.65a5,5,0,0,1-5.27-5.22v-2a5,5,0,0,1,5.27-5.22,5.1,5.1,0,0,1,3.58,1.26,4.54,4.54,0,0,1,1.5,3.19h-1.58a3.78,3.78,0,0,0-1-2.19,3.27,3.27,0,0,0-2.44-.87,3.36,3.36,0,0,0-2.67,1,4.06,4.06,0,0,0-.9,2.77v2a4.05,4.05,0,0,0,.9,2.77,3.36,3.36,0,0,0,2.67,1,3.27,3.27,0,0,0,2.44-.87,3.78,3.78,0,0,0,1-2.19h1.58a4.54,4.54,0,0,1-1.5,3.19A5.1,5.1,0,0,1,119.33,47.65Z"/><path class="cls-1" d="M133.23,47.38h-1.49q-3.23,0-3.23-3.16V36.93h-2V35.5h2V32.08h1.76V35.5h3v1.44h-3v7.29a1.83,1.83,0,0,0,.39,1.32,1.9,1.9,0,0,0,1.37.39h1.18Z"/><path class="cls-1" d="M144.69,46.17a5.81,5.81,0,0,1-7.76,0,5.2,5.2,0,0,1-1.43-3.76V40.46a5.21,5.21,0,0,1,1.43-3.76,5.81,5.81,0,0,1,7.76,0,5.23,5.23,0,0,1,1.42,3.76v1.95A5.23,5.23,0,0,1,144.69,46.17Zm-.28-5.68a4.05,4.05,0,0,0-.94-2.8,3.87,3.87,0,0,0-5.31,0,4.05,4.05,0,0,0-.94,2.8v1.9a4,4,0,0,0,.94,2.8,3.87,3.87,0,0,0,5.31,0,4,4,0,0,0,.94-2.8Z"/><path class="cls-1" d="M149.28,47.38V35.5h1.65v2.74q.67-2.81,3.88-2.81h.28v1.65h-.35a3.39,3.39,0,0,0-2.7,1.14,5,5,0,0,0-1,3.34v5.82Z"/><path class="cls-2" d="M7.59.63,13.37,16H11.68l-1.41-3.92H3.17L1.78,16H.09L5.87.63ZM6.73,2.19,3.65,10.75H9.79Z"/><path class="cls-2" d="M21.93,16V.63H32.1V2.06H23.65V7.51h7.81V8.94H23.65V14.6h8.47V16Z"/><path class="cls-2" d="M41,16V.63h6.36A5.1,5.1,0,0,1,51.21,2a4.81,4.81,0,0,1,1.36,3.52,4.8,4.8,0,0,1-.89,2.87,4.59,4.59,0,0,1-2.43,1.73L52.6,16h-2l-3.12-5.63H42.77V16Zm1.72-7h4.42a3.64,3.64,0,0,0,2.73-1,3.47,3.47,0,0,0,.95-2.53,3.46,3.46,0,0,0-1-2.54,3.64,3.64,0,0,0-2.71-1H42.77Z"/><path class="cls-2" d="M74.05,9.56a7.09,7.09,0,0,1-1.68,4.86,6,6,0,0,1-4.79,1.91,6,6,0,0,1-4.78-1.91,7.09,7.09,0,0,1-1.68-4.86V7.09A7.09,7.09,0,0,1,62.8,2.23,6,6,0,0,1,67.58.32a6,6,0,0,1,4.79,1.91,7.09,7.09,0,0,1,1.68,4.86ZM64,13.43a5,5,0,0,0,7.11,0,5.8,5.8,0,0,0,1.2-3.78V7a5.8,5.8,0,0,0-1.2-3.78,5,5,0,0,0-7.11,0A5.8,5.8,0,0,0,62.83,7V9.65A5.8,5.8,0,0,0,64,13.43Z"/><path class="cls-2" d="M89.25,16.33a6,6,0,0,1-4.74-1.86,7,7,0,0,1-1.66-4.85V7a7,7,0,0,1,1.66-4.85A6,6,0,0,1,89.25.32a5.9,5.9,0,0,1,4.22,1.56,5.8,5.8,0,0,1,1.85,3.83H93.67a4.71,4.71,0,0,0-1.35-2.84,4.2,4.2,0,0,0-3.09-1.12,4.26,4.26,0,0,0-3.48,1.43A5.73,5.73,0,0,0,84.57,7V9.69a5.73,5.73,0,0,0,1.19,3.78,4.26,4.26,0,0,0,3.48,1.43,4.2,4.2,0,0,0,3.09-1.12,4.71,4.71,0,0,0,1.35-2.84h1.65a5.8,5.8,0,0,1-1.85,3.83A5.9,5.9,0,0,1,89.25,16.33Z"/><path class="cls-2" d="M104.45,16V.63h10.16V2.06h-8.45V7.51H114V8.94h-7.81V14.6h8.47V16Z"/><path class="cls-2" d="M123.57,16V.63h1.61l8.47,12.65V.63h1.67V16h-1.61L125.24,3.38V16Z"/><path class="cls-2" d="M145,16V.63h10.16V2.06h-8.45V7.51h7.81V8.94h-7.81V14.6h8.47V16Z"/><rect class="cls-2" x="0.01" y="22.2" width="155.08" height="1"/></svg>