<?xml version="1.0" encoding="UTF-8"?>
<svg width="21px" height="25px" viewBox="0 0 21 25" version="1.1" xmlns="http://www.w3.org/2000/svg" xmlns:xlink="http://www.w3.org/1999/xlink">
    <!-- Generator: Sketch 48.2 (47327) - http://www.bohemiancoding.com/sketch -->
    <title>Group 3</title>
    <desc>Created with Sketch.</desc>
    <defs></defs>
    <g id="Icons-/-Download" stroke="none" stroke-width="1" fill="none" fill-rule="evenodd" transform="translate(-20.000000, -18.000000)">
        <g id="Group-2" transform="translate(20.500000, 18.000000)" fill="#1E1E1E" fill-rule="nonzero">
            <g id="Group-3">
                <path d="M0.292893219,15.7071068 C-0.0976310729,15.3165825 -0.0976310729,14.6834175 0.292893219,14.2928932 C0.683417511,13.9023689 1.31658249,13.9023689 1.70710678,14.2928932 L10.6995293,23.2853157 C11.0900536,23.67584 11.0900536,24.309005 10.6995293,24.6995293 C10.309005,25.0900536 9.67584001,25.0900536 9.28531572,24.6995293 L0.292893219,15.7071068 Z" id="Line"></path>
                <path d="M9.29289322,15.7071068 C8.90236893,15.3165825 8.90236893,14.6834175 9.29289322,14.2928932 C9.68341751,13.9023689 10.3165825,13.9023689 10.7071068,14.2928932 L19.6995293,23.2853157 C20.0900536,23.67584 20.0900536,24.309005 19.6995293,24.6995293 C19.309005,25.0900536 18.67584,25.0900536 18.2853157,24.6995293 L9.29289322,15.7071068 Z" id="Line-Copy" transform="translate(14.496211, 19.496211) scale(-1, 1) translate(-14.496211, -19.496211) "></path>
                <path d="M11,23.5 C11,24.0522847 10.5522847,24.5 10,24.5 C9.44771525,24.5 9,24.0522847 9,23.5 L9,1.47728445 C9,0.924999705 9.44771525,0.477284454 10,0.477284454 C10.5522847,0.477284454 11,0.924999705 11,1.47728445 L11,23.5 Z" id="Line-2"></path>
            </g>
        </g>
    </g>
</svg>