<?xml version="1.0" encoding="UTF-8"?>
<svg width="21px" height="21px" viewBox="0 0 21 21" version="1.1" xmlns="http://www.w3.org/2000/svg" xmlns:xlink="http://www.w3.org/1999/xlink">
    <!-- Generator: Sketch 48.2 (47327) - http://www.bohemiancoding.com/sketch -->
    <title>Stroke 87</title>
    <desc>Created with Sketch.</desc>
    <defs></defs>
    <g id="Icons-/-Social-Facebook" stroke="none" stroke-width="1" fill="none" fill-rule="evenodd" transform="translate(-20.000000, -20.000000)">
        <g id="Group" transform="translate(11.000000, 11.000000)" fill="#1E1E1E">
            <path d="M28.08,9.75 L10.92,9.75 C10.27338,9.75 9.75,10.27338 9.75,10.92 L9.75,28.08 C9.75,28.72662 10.27338,29.25 10.92,29.25 L19.89,29.25 L19.89,23.01 L17.55,23.01 L17.55,19.89 L19.89,19.89 L19.89,17.55 C19.89,15.39642 21.63642,13.65 23.79,13.65 L26.13,13.65 L26.13,16.77 L24.57,16.77 C23.70888,16.77 23.01,17.46888 23.01,18.33 L23.01,19.89 L26.13,19.89 L25.74,23.01 L23.01,23.01 L23.01,29.25 L28.08,29.25 C28.72662,29.25 29.25,28.72662 29.25,28.08 L29.25,10.92 C29.25,10.27338 28.72662,9.75 28.08,9.75 Z" id="Stroke-87"></path>
        </g>
    </g>
</svg>