<?xml version="1.0" encoding="UTF-8"?>
<svg width="12px" height="12px" viewBox="0 0 12 12" version="1.1" xmlns="http://www.w3.org/2000/svg" xmlns:xlink="http://www.w3.org/1999/xlink">
    <!-- Generator: Sketch 48.2 (47327) - http://www.bohemiancoding.com/sketch -->
    <title>Shape</title>
    <desc>Created with Sketch.</desc>
    <defs></defs>
    <g id="Icons-/-GPS" stroke="none" stroke-width="1" fill="none" fill-rule="evenodd" transform="translate(-24.000000, -24.000000)">
        <path d="M28.9444643,36 C28.7523064,36 28.5778473,35.8835359 28.5051559,35.7037039 L24.0346403,24.6517801 C23.9632132,24.4754247 24.0042996,24.2733112 24.1389365,24.1388323 C24.2735735,24.0043534 24.4753709,23.963267 24.6520424,24.0345361 L35.7045982,28.5044196 C35.8928055,28.5805875 36.01164,28.7681627 36.0001042,28.9709082 C35.9885684,29.1736538 35.8490327,29.3465327 35.6533983,29.4007351 L30.7577965,30.7569021 L29.4017875,35.6523459 C29.347585,35.8479803 29.1747061,35.9875161 28.9719606,35.9990519 C28.9626371,35.999684 28.9536297,36 28.9444643,36 Z" id="Shape" fill="#FFFFFF" fill-rule="nonzero" transform="translate(30.000438, 30.000000) scale(-1, 1) translate(-30.000438, -30.000000) "></path>
    </g>
</svg>