<?xml version="1.0" encoding="UTF-8"?>
<svg width="28px" height="18px" viewBox="0 0 28 18" version="1.1" xmlns="http://www.w3.org/2000/svg" xmlns:xlink="http://www.w3.org/1999/xlink">
    <!-- Generator: Sketch 48.2 (47327) - http://www.bohemiancoding.com/sketch -->
    <title>Page 1</title>
    <desc>Created with Sketch.</desc>
    <defs></defs>
    <g id="Icons-/-Social-Google" stroke="none" stroke-width="1" fill="none" fill-rule="evenodd" transform="translate(-17.000000, -22.000000)">
        <path d="M44.3620387,29.4176207 L41.9313095,29.4176207 L41.9313095,26.9868916 L39.5005804,26.9868916 L39.5005804,29.4176207 L37.0710132,29.4176207 L37.0710132,31.846026 L39.5029043,31.846026 L39.5029043,34.277917 L41.9406049,34.277917 L41.9406049,31.846026 L44.3620387,31.846026 L44.3620387,29.4176207 Z M26.1397037,29.4176207 L26.1397037,32.3340309 L30.9663044,32.3340309 C30.7734263,33.5865768 29.5080993,36.0033629 26.1443513,36.0033629 C23.244208,36.0033629 20.8762224,33.5981959 20.8762224,30.6329853 C20.8762224,27.6677746 23.2383984,25.2626076 26.1408656,25.2626076 C27.7942726,25.2626076 28.901579,25.9678909 29.5313377,26.5744113 L31.8400656,24.353989 C30.3586221,22.9678227 28.4368124,22.1335668 26.1443513,22.1335668 C21.437428,22.1312429 17.6379613,25.938843 17.6379613,30.6329853 C17.6379613,35.3259656 21.4397518,39.1335657 26.1397037,39.1335657 C31.0499624,39.1335657 34.3033283,35.6838359 34.3033283,30.8258634 C34.3033283,30.2681435 34.2440706,29.8405583 34.169708,29.4176207 L26.1397037,29.4176207 Z" id="Page-1" fill="#1E1E1E"></path>
    </g>
</svg>