<?xml version="1.0" encoding="UTF-8"?>
<svg width="15px" height="14px" viewBox="0 0 15 14" version="1.1" xmlns="http://www.w3.org/2000/svg" xmlns:xlink="http://www.w3.org/1999/xlink">
    <!-- Generator: Sketch 48.2 (47327) - http://www.bohemiancoding.com/sketch -->
    <title>Drag</title>
    <desc>Created with Sketch.</desc>
    <defs></defs>
    <g id="Legend-Copy" stroke="none" stroke-width="1" fill="none" fill-rule="evenodd" transform="translate(-22.000000, -709.000000)">
        <path d="M27.0303087,723 C27.0303087,723 24.811066,721.301262 24.0303089,720 C23.2495518,718.698738 21.7700566,717.041009 22.030309,716 C22.2905613,714.958991 23.2495518,714.630915 24.0303089,715.411672 C24.8110661,716.192429 25.0098041,717.760252 25.530309,717.5 C26.0508138,717.239748 26.0508135,715.931388 25.530309,714.5 C25.0098043,713.068612 23.4671338,710 24.530309,710 C25.5934842,710 26.0303087,710 26.5303087,711.5 C27.0303087,713 27.1399301,714.999999 27.5303087,715 C27.9206874,715.000001 27.5303087,715.411672 28.0696573,714 C28.1328239,713.83467 27.9992708,710.623886 28.0696573,710.5 C28.2582747,710.168019 28.3319666,709 29.0538297,709 C29.3995786,709 30.0303086,709.5 30.0303087,711.5 C30.0303087,713.5 30.1473944,715 30.5303087,715 C31.0303087,715 31.0303091,715.041009 31.0303087,714 C31.0303086,713.562388 31.0303087,712 31.0303087,711.5 C31.0303087,711 31.914321,710 32.493948,710 C33.493948,710 33.0098044,715 33.5303087,715 C33.7552581,715 34.5303087,713 34.5303087,713 C34.5303087,713 35.2463966,712 35.5303087,712 C36.5303087,712 36.0303087,715 35.5303087,716 C35.0303089,717 35.3110662,718.95899 34.5303087,720 C33.7495512,721.04101 33.0303087,722 33.0303087,722 C33.0303087,722 33.0303087,723 32.493948,723 C31.9575872,723 31.68094,722 31.0303087,722 C30.3796774,722 30.0303087,723 30.0303087,723 L27.0303087,723 Z M33.030309,721 L33.030309,717 L32.030309,717 L32.030309,721 L33.030309,721 Z M30.030309,720 C30.030309,720.270884 30.2622426,721 30.530309,721 C30.8064513,721 31.030309,720.275421 31.030309,720 L31.030309,718 C31.030309,717.729116 30.7983754,717 30.530309,717 C30.2541666,717 30.030309,717.724579 30.030309,718 L30.030309,720 Z M28.030309,720 C28.030309,720.270884 28.2622426,721 28.530309,721 C28.8064513,721 29.030309,720.275421 29.030309,720 L29.030309,718 C29.030309,717.729116 28.7983754,717 28.530309,717 C28.2541666,717 28.030309,717.724579 28.030309,718 L28.030309,720 Z" id="Drag" fill="#FFFFFF"></path>
    </g>
</svg>