<?xml version="1.0" encoding="UTF-8"?>
<svg width="22px" height="21px" viewBox="0 0 22 21" version="1.1" xmlns="http://www.w3.org/2000/svg" xmlns:xlink="http://www.w3.org/1999/xlink">
    <!-- Generator: Sketch 48.2 (47327) - http://www.bohemiancoding.com/sketch -->
    <title>Page 1</title>
    <desc>Created with Sketch.</desc>
    <defs>
        <polygon id="path-1" points="0 0.8375 21.078 0.8375 21.078 8.8355 0 8.8355"></polygon>
    </defs>
    <g id="Icons-/-Wind" stroke="none" stroke-width="1" fill="none" fill-rule="evenodd" transform="translate(-19.000000, -20.000000)">
        <g id="Page-1" transform="translate(19.000000, 20.000000)">
            <g id="Group-3" transform="translate(0.000000, 3.000000)">
                <mask id="mask-2" fill="white">
                    <use xlink:href="#path-1"></use>
                </mask>
                <g id="Clip-2"></g>
                <path d="M17.1208,8.8355 L-0.0002,8.8355 L-0.0002,6.2225 L17.1208,6.2225 C17.8248,6.2225 18.4658,5.5035 18.4658,4.7135 C18.4658,3.9585 17.9798,3.4505 17.2558,3.4505 L17.2558,0.8375 C19.4348,0.8375 21.0788,2.5045 21.0788,4.7135 C21.0788,6.9475 19.2658,8.8355 17.1208,8.8355" id="Fill-1" fill="#1E1E1E" mask="url(#mask-2)"></path>
            </g>
            <path d="M11.7583,7.9161 L2.6133,7.9161 L2.6133,5.3031 L11.7583,5.3031 C12.4993,5.3031 13.1033,4.7001 13.1033,3.9581 C13.1033,3.2891 12.6883,2.6131 11.8953,2.6131 C11.1443,2.6131 10.5333,3.2231 10.5333,3.9741 L7.9203,3.9741 C7.9203,1.7821 9.7033,0.0001 11.8953,0.0001 C14.0373,0.0001 15.7163,1.7381 15.7163,3.9581 C15.7163,6.1401 13.9403,7.9161 11.7583,7.9161" id="Fill-4" fill="#1E1E1E"></path>
            <path d="M14.5078,21 L14.5078,18.387 C15.2198,18.387 15.7158,17.846 15.7158,17.071 C15.7158,16.333 15.1258,15.755 14.3708,15.755 L2.6128,15.755 L2.6128,13.142 L14.3708,13.142 C16.5528,13.142 18.3288,14.905 18.3288,17.071 C18.3288,19.274 16.6498,21 14.5078,21" id="Fill-6" fill="#1E1E1E"></path>
        </g>
    </g>
</svg>