<svg width="22px" height="22px" viewBox="0 0 10 17" version="1.1" xmlns="http://www.w3.org/2000/svg" xmlns:xlink="http://www.w3.org/1999/xlink">
    <g id="navigation-bar-12" stroke="none" stroke-width="1" fill="none" fill-rule="evenodd" transform="translate(-141.000000, -21.000000)">
        <g id="Icons-/-Screeenshot" transform="translate(130.000000, 14.000000)" fill="#FFF">
            <path d="M14.35,18.38 L14.35,17.368 C14.35,15.7839921 14.8119954,14.6473368 15.736,13.958 L16.748,13.21 C17.2173357,12.872665 17.5546656,12.575668 17.76,12.319 C17.9653344,12.0623321 18.068,11.736002 18.068,11.34 C18.068,10.8413308 17.8736686,10.4453348 17.485,10.152 C17.0963314,9.8586652 16.5793366,9.712 15.934,9.712 C14.4819927,9.712 13.756,10.3499936 13.756,11.626 L13.756,12.132 L11.006,12.132 L11.006,11.582 C11.006,10.1593262 11.4569955,9.08867026 12.359,8.37 C13.2610045,7.65132974 14.474659,7.292 16,7.292 C17.4960075,7.292 18.7133286,7.66232963 19.652,8.403 C20.5906714,9.14367037 21.06,10.1226606 21.06,11.34 C21.06,12.6746733 20.4880057,13.7599958 19.344,14.596 L18.222,15.41 C17.7673311,15.747335 17.4520009,16.0663318 17.276,16.367 C17.0999991,16.6676682 17.012,17.1259969 17.012,17.742 L17.012,18.38 L14.35,18.38 Z M14.482,22.714 C14.1739985,22.3913317 14.02,21.9733359 14.02,21.46 C14.02,20.9466641 14.1776651,20.5323349 14.493,20.217 C14.8083349,19.9016651 15.2226641,19.744 15.736,19.744 C16.2493359,19.744 16.6636651,19.9016651 16.979,20.217 C17.2943349,20.5323349 17.452,20.9466641 17.452,21.46 C17.452,21.9733359 17.2943349,22.3876651 16.979,22.703 C16.6636651,23.0183349 16.2493359,23.176 15.736,23.176 C15.2226641,23.176 14.8046683,23.0220015 14.482,22.714 Z" id="?"></path>
        </g>
    </g>
</svg>