<svg id="Layer_1" data-name="Layer 1" xmlns="http://www.w3.org/2000/svg" viewBox="0 0 41 41"><defs><style>.cls-1{fill:#787878;}</style></defs><title>171121_Aerocene_arrow-button</title><path class="cls-1" d="M21,41.55A20.5,20.5,0,1,1,41.48,21,20.52,20.52,0,0,1,21,41.55Zm0-40A19.5,19.5,0,1,0,40.48,21,19.52,19.52,0,0,0,21,1.55Z" transform="translate(-0.48 -0.55)"/><path class="cls-1" d="M29,21.24a.5.5,0,0,0,0-.38.49.49,0,0,0-.08-.13l0,0-5.85-5.86a.5.5,0,0,0-.71.71l5,5h-14a.5.5,0,1,0,0,1h14l-5,5a.5.5,0,1,0,.71.71l5.85-5.86A.5.5,0,0,0,29,21.24Z" transform="translate(-0.48 -0.55)"/></svg>