<?xml version="1.0" encoding="UTF-8"?>
<svg width="18px" height="14px" viewBox="0 0 18 14" version="1.1" xmlns="http://www.w3.org/2000/svg" xmlns:xlink="http://www.w3.org/1999/xlink">
    <!-- Generator: Sketch 48.2 (47327) - http://www.bohemiancoding.com/sketch -->
    <title>Group</title>
    <desc>Created with Sketch.</desc>
    <defs></defs>
    <g id="Icons-/-Screeenshot" stroke="none" stroke-width="1" fill="none" fill-rule="evenodd" transform="translate(-21.000000, -22.000000)">
        <g id="Group-2" transform="translate(14.000000, 14.000000)" fill="#1E1E1E" fill-rule="nonzero">
            <g id="Group" transform="translate(7.680000, 8.960000)">
                <path d="M5.94285714,0 L4.95238095,2.06451513 L1.18857143,2.06451513 C0.530102857,2.06451513 0,2.61697731 0,3.30322421 L0,11.5612909 C0,12.2475358 0.530102857,12.8 1.18857143,12.8 L15.4514286,12.8 C16.1098971,12.8 16.64,12.2475358 16.64,11.5612909 L16.64,3.30322421 C16.64,2.61697731 16.1098971,2.06451513 15.4514286,2.06451513 L11.687619,2.06451513 L10.6971429,0 L5.94285714,0 Z M8.32,3.84 C10.08732,3.84 11.52,5.27269266 11.52,7.040003 C11.52,8.80730134 10.08732,10.24 8.32,10.24 C6.55272,10.24 5.12,8.80730134 5.12,7.040003 C5.12,5.27269266 6.55272,3.84 8.32,3.84 Z" id="Shape"></path>
            </g>
        </g>
    </g>
</svg>