<?xml version="1.0" encoding="UTF-8"?>
<svg width="22px" height="21px" viewBox="0 0 22 21" version="1.1" xmlns="http://www.w3.org/2000/svg" xmlns:xlink="http://www.w3.org/1999/xlink">
    <!-- Generator: Sketch 48.2 (47327) - http://www.bohemiancoding.com/sketch -->
    <title>Page 1</title>
    <desc>Created with Sketch.</desc>
    <defs>
        <polygon id="path-1" points="0.9492 0 20.711 0 20.711 19.9585 0.9492 19.9585"></polygon>
    </defs>
    <g id="Icons-/-Wind-OFF" stroke="none" stroke-width="1" fill="none" fill-rule="evenodd" transform="translate(-19.000000, -20.000000)">
        <g id="Page-1" transform="translate(19.000000, 20.000000)">
            <polygon id="Fill-1" fill="#1E1E1E" points="2.613 5.3031 2.613 7.9161 6.987 7.9161 4.374 5.3031"></polygon>
            <g id="Group-11">
                <path d="M15.7161,17.071 C15.7161,17.846 15.2201,18.387 14.5081,18.387 L14.5081,21 C16.0231,21 17.2921,20.128 17.9141,18.843 L15.5851,16.515 C15.6651,16.684 15.7161,16.869 15.7161,17.071" id="Fill-2" fill="#1E1E1E"></path>
                <polygon id="Fill-4" fill="#1E1E1E" points="8.293 9.2225 0 9.2225 0 11.8355 10.906 11.8355"></polygon>
                <path d="M12.2125,13.142 L2.6135,13.142 L2.6135,15.755 L14.3715,15.755 C14.5955,15.755 14.7955,15.818 14.9795,15.909 L12.2125,13.142 Z" id="Fill-6" fill="#1E1E1E"></path>
                <g id="Group-10" transform="translate(1.000000, 0.000000)">
                    <mask id="mask-2" fill="white">
                        <use xlink:href="#path-1"></use>
                    </mask>
                    <g id="Clip-9"></g>
                    <path d="M13.8222,11.8355 L16.1212,11.8355 C18.2652,11.8355 20.0782,9.9475 20.0782,7.7135 C20.0782,5.5045 18.4352,3.8375 16.2562,3.8375 L16.2562,6.4505 C16.9792,6.4505 17.4652,6.9585 17.4652,7.7135 C17.4652,8.5035 16.8252,9.2225 16.1212,9.2225 L11.2092,9.2225 L9.9032,7.9165 L10.7582,7.9165 C12.9402,7.9165 14.7162,6.1405 14.7162,3.9575 C14.7162,1.7385 13.0372,-0.0005 10.8952,-0.0005 C8.7032,-0.0005 6.9202,1.7825 6.9202,3.9735 L9.5332,3.9735 C9.5332,3.2235 10.1442,2.6125 10.8952,2.6125 C11.6882,2.6125 12.1032,3.2895 12.1032,3.9575 C12.1032,4.6995 11.4992,5.3035 10.7582,5.3035 L7.2902,5.3035 L2.1832,0.1965 L0.9492,1.4305 L19.4772,19.9585 L20.7112,18.7245 L13.8222,11.8355 Z" id="Fill-8" fill="#1E1E1E" mask="url(#mask-2)"></path>
                </g>
            </g>
        </g>
    </g>
</svg>