<?xml version="1.0" encoding="UTF-8"?>
<svg width="23px" height="23px" viewBox="0 0 23 23" version="1.1" xmlns="http://www.w3.org/2000/svg" xmlns:xlink="http://www.w3.org/1999/xlink">
    <!-- Generator: Sketch 49.1 (51147) - http://www.bohemiancoding.com/sketch -->
    <title>Group 4</title>
    <desc>Created with Sketch.</desc>
    <defs></defs>
    <g id="Symbols-" stroke="none" stroke-width="1" fill="none" fill-rule="evenodd">
        <g id="Icons-/-Social-Instagram-Copy" transform="translate(-19.000000, -19.000000)">
            <g id="Group" transform="translate(11.000000, 11.000000)">
                <g id="Group-4" transform="translate(8.531250, 8.531250)">
                    <path d="M20.9375,16.6725 L20.9375,5.265 C20.9375,2.91012725 19.0273728,1 16.6725,1 L5.265,1 C2.91012725,1 1,2.91012725 1,5.265 L1,16.6725 C1,19.0273728 2.91012725,20.9375 5.265,20.9375 L16.6725,20.9375 C19.0273728,20.9375 20.9375,19.0273728 20.9375,16.6725 Z" id="Stroke-38" stroke="#1E1E1E" stroke-width="2"></path>
                    <path d="M15.6725,10.96875 C15.6725,8.37080975 13.5666903,6.265 10.96875,6.265 C8.37080975,6.265 6.265,8.37080975 6.265,10.96875 C6.265,13.5666903 8.37080975,15.6725 10.96875,15.6725 C13.5666903,15.6725 15.6725,13.5666903 15.6725,10.96875 Z" id="Stroke-40" stroke="#1E1E1E" stroke-width="2"></path>
                    <path d="M18.4275,4.82625 C18.4275,5.55282 17.83782,6.1425 17.11125,6.1425 C16.38468,6.1425 15.795,5.55282 15.795,4.82625 C15.795,4.09968 16.38468,3.51 17.11125,3.51 C17.83782,3.51 18.4275,4.09968 18.4275,4.82625 Z" id="Stroke-42" fill="#1E1E1E"></path>
                </g>
            </g>
        </g>
    </g>
</svg>