<?xml version="1.0" encoding="UTF-8"?>
<svg width="22px" height="18px" viewBox="0 0 22 18" version="1.1" xmlns="http://www.w3.org/2000/svg" xmlns:xlink="http://www.w3.org/1999/xlink">
    <!-- Generator: Sketch 48.2 (47327) - http://www.bohemiancoding.com/sketch -->
    <title>Stroke 89</title>
    <desc>Created with Sketch.</desc>
    <defs></defs>
    <g id="Icons-/-Social-Twitter" stroke="none" stroke-width="1" fill="none" fill-rule="evenodd" transform="translate(-20.000000, -21.000000)">
        <g id="Group" transform="translate(11.000000, 11.000000)" fill="#1E1E1E">
            <path d="M11.1010054,11.833222 C12.8356649,13.9472489 15.9413341,15.9426789 20.109375,16.1577252 C19.8793254,15.2396703 19.8571778,12.7469903 21.6747123,11.7117672 C22.4877446,11.2480959 23.2571961,10.96875 24.1631056,10.96875 C25.3019224,10.96875 26.2371239,11.3431164 27.2316239,12.2554558 C28.0403696,12.1425744 29.5528384,11.5188685 29.9114871,11.2738157 C29.6778653,12.1332866 28.7433782,13.2370959 28.0682328,13.4992953 C28.6883664,13.4978664 30.0508028,13.1420754 30.46875,12.9320302 C29.8893394,13.8265086 28.8776929,14.6824073 28.3240022,15.0374838 C28.9648545,20.546528 23.8508955,27.3937177 16.5057414,27.4008621 C14.4081466,27.4030054 12.1290841,26.975056 9.75,25.6712037 C12.0969343,25.9348319 14.6117619,25.2046746 16.0556444,23.9415453 C14.2345377,23.9015366 12.390569,22.7234256 11.5518168,20.9144644 C12.4641562,21.1866659 13.3050517,21.3252672 13.8037306,20.9144644 C12.9535474,20.8230162 10.200097,19.374847 10.200097,16.5706713 C10.8330905,17.0736369 11.7440011,17.5930345 12.4527252,17.4551476 C11.2939041,16.7957198 9.60925539,14.2873222 11.1010054,11.833222 Z" id="Stroke-89"></path>
        </g>
    </g>
</svg>