<?xml version="1.0" encoding="UTF-8"?>
<svg width="30px" height="30px" viewBox="0 0 25 20" version="1.1" xmlns="http://www.w3.org/2000/svg" xmlns:xlink="http://www.w3.org/1999/xlink">
    <defs>
        <polygon id="path-1" points="0 0.0442 9.8797 0.0442 9.8797 1.9332 0 1.9332"></polygon>
        <polygon id="path-3" points="0.89915 0.995 22.0774 0.995 22.0774 20.893 0.89915 20.893"></polygon>
        <polygon id="path-5" points="0.999214227 0.53880852 7.6682 0.53880852 7.6682 5 0.999214227 5"></polygon>
    </defs>
    <g id="Icons-/-Wind-OFF" stroke="none" stroke-width="1" fill="none" fill-rule="evenodd" transform="translate(-18.000000, -20.000000)">
        <g id="Page-1" transform="translate(18.000000, 19.000000)">
            <g id="Group-3" transform="translate(0.000000, 10.005200)">
                <mask id="mask-2" fill="white">
                    <use xlink:href="#path-1"></use>
                </mask>
                <g id="Clip-2"></g>
                <path d="M7.9907,0.0442 L0.9857,0.0442 C0.7167,0.0442 0.4877,0.1412 0.3007,0.3332 C0.0997,0.5152 -0.0003,0.7362 -0.0003,0.9972 C-0.0003,1.2582 0.0997,1.4842 0.3007,1.6772 C0.4877,1.8482 0.7167,1.9332 0.9857,1.9332 L9.8797,1.9332 L7.9907,0.0442 Z" id="Fill-1" fill="#FFFFFF" mask="url(#mask-2)"></path>
            </g>
            <path d="M6.3236,8.3823 L4.4366,6.4953 L4.0686,6.4953 C3.7996,6.4953 3.5716,6.5903 3.3836,6.7843 C3.1836,6.9653 3.0836,7.1803 3.0836,7.4303 C3.0836,7.6913 3.1836,7.9173 3.3836,8.1103 C3.5716,8.2913 3.7996,8.3823 4.0686,8.3823 L6.3236,8.3823 Z" id="Fill-4" fill="#FFFFFF"></path>
            <g id="Group-8" transform="translate(2.000000, 0.005200)">
                <mask id="mask-4" fill="white">
                    <use xlink:href="#path-3"></use>
                </mask>
                <g id="Clip-7"></g>
                <path d="M17.9404,11.933 L18.1174,11.933 C18.1524,11.921 18.2054,11.915 18.2754,11.915 C18.5444,11.915 18.7974,11.899 19.0324,11.864 C19.7604,11.74 20.4124,11.4 20.9864,10.845 C21.7144,10.118 22.0774,9.245 22.0774,8.224 C22.0774,7.214 21.7144,6.353 20.9864,5.639 C20.2344,4.913 19.3314,4.549 18.2754,4.549 C17.2194,4.549 16.3274,4.913 15.6004,5.639 L15.5644,5.639 C14.8954,6.319 14.5374,7.113 14.4904,8.02 C14.4674,8.27 14.5494,8.491 14.7374,8.684 C14.9254,8.888 15.1534,8.995 15.4224,9.007 C15.6814,9.018 15.9114,8.938 16.1094,8.769 C16.3204,8.587 16.4324,8.366 16.4454,8.105 C16.4554,7.674 16.6334,7.294 16.9724,6.965 L16.9724,6.948 C17.3364,6.609 17.7714,6.438 18.2754,6.438 C18.7924,6.438 19.2314,6.614 19.5954,6.965 C19.9484,7.306 20.1244,7.725 20.1244,8.224 C20.1244,8.734 19.9484,9.165 19.5954,9.517 C19.3144,9.755 19.0084,9.914 18.6804,9.993 C18.5394,10.016 18.4044,10.028 18.2754,10.028 C18.1234,10.028 17.9874,10.033 17.8704,10.044 L17.7294,10.044 L10.8224,10.044 L9.1554,8.377 L9.1564,8.377 L9.3674,8.377 L9.5424,8.377 C9.5794,8.366 9.6324,8.361 9.7024,8.361 C9.9714,8.361 10.2244,8.343 10.4594,8.309 C11.1864,8.173 11.8384,7.834 12.4134,7.289 C13.1404,6.563 13.5044,5.689 13.5044,4.668 C13.5044,3.649 13.1404,2.786 12.4134,2.083 C11.6614,1.357 10.7584,0.995 9.7024,0.995 C8.6454,0.995 7.7544,1.357 7.0254,2.083 L6.9904,2.083 C6.3224,2.763 5.9634,3.552 5.9164,4.448 C5.9054,4.709 5.9864,4.936 6.1624,5.128 C6.3504,5.321 6.5804,5.428 6.8494,5.451 C7.1074,5.463 7.3434,5.378 7.5534,5.196 C7.7544,5.027 7.8594,4.81 7.8704,4.549 C7.8824,4.119 8.0584,3.739 8.3984,3.41 L8.3984,3.393 C8.7624,3.053 9.1964,2.882 9.7024,2.882 C10.2184,2.882 10.6584,3.058 11.0214,3.41 C11.3744,3.75 11.5504,4.169 11.5504,4.668 C11.5504,5.167 11.3744,5.599 11.0214,5.962 C10.7404,6.2 10.4354,6.358 10.1064,6.438 C9.9664,6.461 9.8304,6.472 9.7024,6.472 C9.5494,6.472 9.4144,6.477 9.2964,6.49 L9.1564,6.49 L7.2674,6.49 L2.6064,1.828 C2.2154,1.437 1.5824,1.437 1.1924,1.828 C0.8014,2.219 0.8014,2.851 1.1924,3.242 L18.5494,20.6 C18.7454,20.795 19.0004,20.893 19.2564,20.893 C19.5124,20.893 19.7684,20.795 19.9634,20.6 C20.3544,20.209 20.3544,19.577 19.9634,19.186 L12.7114,11.933 L17.7294,11.933 L17.9404,11.933 Z" id="Fill-6" fill="#FFFFFF" mask="url(#mask-4)"></path>
            </g>
            <path d="M11.5627,13.6215 L4.0477,13.6215 C3.7787,13.6215 3.5507,13.7185 3.3627,13.9105 C3.1627,14.0815 3.0627,14.2965 3.0627,14.5575 C3.0627,14.8185 3.1627,15.0455 3.3627,15.2385 C3.5507,15.4195 3.7787,15.5105 4.0477,15.5105 L13.4517,15.5105 L11.5627,13.6215 Z" id="Fill-9" fill="#FFFFFF"></path>
            <g id="Group-13" transform="translate(10.000000, 16.005200)">
                <mask id="mask-6" fill="white">
                    <use xlink:href="#path-5"></use>
                </mask>
                <g id="Clip-12"></g>
                <path d="M6.1052,2.6014 C5.7412,2.9404 5.3022,3.1114 4.7852,3.1114 C4.2802,3.1114 3.8462,2.9404 3.4822,2.6014 C3.1412,2.2604 2.9662,1.8694 2.9532,1.4274 C2.9432,1.1774 2.8372,0.9624 2.6372,0.7814 C2.4262,0.5994 2.1912,0.5204 1.9332,0.5424 C1.6632,0.5544 1.4342,0.6554 1.2462,0.8494 C1.0702,1.0424 0.9892,1.2684 1.0002,1.5294 C1.0472,2.4364 1.4052,3.2304 2.0732,3.9114 L2.1082,3.9274 C2.8372,4.6434 3.7282,5.0004 4.7852,5.0004 C5.8412,5.0004 6.7452,4.6434 7.4962,3.9274 C7.5622,3.8624 7.6092,3.7894 7.6682,3.7224 L6.3032,2.3574 C6.2442,2.4414 6.1812,2.5234 6.1052,2.6014" id="Fill-11" fill="#FFFFFF" mask="url(#mask-6)"></path>
            </g>
        </g>
    </g>
</svg>