<?xml version="1.0" encoding="UTF-8"?>
<svg width="25px" height="20px" viewBox="0 0 25 20" version="1.1" xmlns="http://www.w3.org/2000/svg" xmlns:xlink="http://www.w3.org/1999/xlink">
    <!-- Generator: Sketch 48.2 (47327) - http://www.bohemiancoding.com/sketch -->
    <title>Page 1</title>
    <desc>Created with Sketch.</desc>
    <defs>
        <polygon id="path-1" points="0 0.0002 24.078 0.0002 24.078 20.0052 0 20.0052"></polygon>
    </defs>
    <g id="Icons-/-Wind" stroke="none" stroke-width="1" fill="none" fill-rule="evenodd" transform="translate(-18.000000, -20.000000)">
        <g id="Page-1" transform="translate(18.000000, 20.000000)">
            <mask id="mask-2" fill="white">
                <use xlink:href="#path-1"></use>
            </mask>
            <g id="Clip-2"></g>
            <path d="M22.124,7.2295 C22.124,7.7395 21.948,8.1705 21.595,8.5225 C21.314,8.7605 21.009,8.9195 20.68,8.9985 C20.539,9.0205 20.404,9.0335 20.276,9.0335 C20.123,9.0335 19.988,9.0385 19.87,9.0495 L19.729,9.0495 L0.986,9.0495 C0.717,9.0495 0.488,9.1465 0.3,9.3385 C0.1,9.5195 0,9.7415 0,10.0025 C0,10.2635 0.1,10.4895 0.3,10.6825 C0.488,10.8535 0.717,10.9385 0.986,10.9385 L19.729,10.9385 L19.94,10.9385 L20.118,10.9385 C20.153,10.9265 20.205,10.9205 20.276,10.9205 C20.545,10.9205 20.798,10.9045 21.033,10.8695 C21.76,10.7445 22.412,10.4055 22.987,9.8495 C23.714,9.1235 24.078,8.2505 24.078,7.2295 C24.078,6.2195 23.714,5.3585 22.987,4.6445 C22.235,3.9185 21.332,3.5545 20.276,3.5545 C19.22,3.5545 18.327,3.9185 17.6,4.6445 L17.565,4.6445 C16.896,5.3245 16.537,6.1185 16.49,7.0255 C16.467,7.2755 16.549,7.4955 16.737,7.6895 C16.925,7.8935 17.154,8.0005 17.423,8.0125 C17.681,8.0235 17.911,7.9435 18.11,7.7745 C18.321,7.5915 18.433,7.3715 18.445,7.1105 C18.456,6.6795 18.633,6.2995 18.972,5.9705 L18.972,5.9535 C19.336,5.6135 19.771,5.4435 20.276,5.4435 C20.792,5.4435 21.232,5.6195 21.595,5.9705 C21.948,6.3115 22.124,6.7305 22.124,7.2295 M9.025,1.0885 L8.99,1.0885 C8.322,1.7685 7.964,2.5565 7.916,3.4535 C7.906,3.7145 7.987,3.9415 8.163,4.1335 C8.35,4.3265 8.58,4.4335 8.849,4.4565 C9.108,4.4685 9.343,4.3835 9.554,4.2005 C9.754,4.0315 9.859,3.8155 9.87,3.5545 C9.882,3.1245 10.058,2.7445 10.399,2.4145 L10.399,2.3985 C10.763,2.0575 11.197,1.8875 11.702,1.8875 C12.219,1.8875 12.658,2.0635 13.022,2.4145 C13.375,2.7555 13.551,3.1745 13.551,3.6735 C13.551,4.1725 13.375,4.6035 13.022,4.9675 C12.741,5.2055 12.435,5.3635 12.107,5.4435 C11.966,5.4665 11.831,5.4775 11.702,5.4775 C11.549,5.4775 11.414,5.4825 11.297,5.4945 L11.156,5.4945 L4.069,5.4945 C3.8,5.4945 3.571,5.5905 3.383,5.7845 C3.183,5.9655 3.083,6.1805 3.083,6.4305 C3.083,6.6915 3.183,6.9175 3.383,7.1105 C3.571,7.2915 3.8,7.3825 4.069,7.3825 L11.156,7.3825 L11.367,7.3825 L11.543,7.3825 C11.579,7.3715 11.632,7.3665 11.702,7.3665 C11.971,7.3665 12.224,7.3485 12.459,7.3145 C13.187,7.1785 13.839,6.8385 14.413,6.2935 C15.141,5.5675 15.504,4.6945 15.504,3.6735 C15.504,2.6545 15.141,1.7915 14.413,1.0885 C13.661,0.3625 12.758,-0.0005 11.702,-0.0005 C10.645,-0.0005 9.754,0.3625 9.025,1.0885 M4.048,12.6215 C3.779,12.6215 3.551,12.7185 3.363,12.9105 C3.163,13.0815 3.062,13.2965 3.062,13.5575 C3.062,13.8185 3.163,14.0455 3.363,14.2385 C3.551,14.4195 3.779,14.5105 4.048,14.5105 L14.239,14.5105 L14.38,14.5105 C14.498,14.5215 14.633,14.5275 14.786,14.5275 C14.914,14.5275 15.049,14.5445 15.19,14.5775 C15.518,14.6465 15.824,14.8055 16.105,15.0555 C16.458,15.3945 16.634,15.8155 16.634,16.3145 C16.634,16.8125 16.458,17.2425 16.105,17.6065 C15.742,17.9455 15.302,18.1165 14.786,18.1165 C14.28,18.1165 13.846,17.9455 13.482,17.6065 C13.141,17.2655 12.966,16.8755 12.954,16.4335 C12.943,16.1825 12.837,15.9675 12.637,15.7865 C12.426,15.6045 12.191,15.5255 11.933,15.5475 C11.664,15.5595 11.434,15.6615 11.246,15.8545 C11.07,16.0475 10.989,16.2735 11,16.5345 C11.047,17.4415 11.405,18.2355 12.073,18.9165 L12.108,18.9335 C12.837,19.6485 13.728,20.0055 14.786,20.0055 C15.842,20.0055 16.745,19.6485 17.496,18.9335 C18.224,18.2065 18.588,17.3345 18.588,16.3145 C18.588,15.3045 18.224,14.4425 17.496,13.7275 C16.922,13.1615 16.27,12.8205 15.543,12.7065 C15.307,12.6625 15.055,12.6395 14.786,12.6395 L14.626,12.6395 C14.568,12.6285 14.51,12.6215 14.45,12.6215 L14.239,12.6215 L4.048,12.6215" id="Fill-1" fill="#1E1E1E" mask="url(#mask-2)"></path>
        </g>
    </g>
</svg>